<?xml version="1.0"?>
<svg xmlns="http://www.w3.org/2000/svg" xmlns:xlink="http://www.w3.org/1999/xlink" version="1.1" id="Capa_1" x="0px" y="0px" viewBox="0 0 512 512" style="enable-background:new 0 0 512 512;" xml:space="preserve" width="512px" height="512px" class=""><g><g>
	<g>
		<path d="M450.944,0h-88.889c-24.555,0-45.758,14.579-55.442,35.529C290.842,31.859,273.884,30,256,30    c-17.884,0-34.842,1.859-50.613,5.529C195.702,14.579,174.5,0,149.944,0H61.056C27.39,0,0,27.39,0,61.056    C0,73.44,3.737,86.149,10.255,95.923l38.592,57.889c6.178,9.268,15.007,16.59,25.173,21.292C55.13,250.788,61,378.51,61,376    c0,57.897,47.103,105,105,105c9.476,0,18.662-1.265,27.401-3.629C207.27,498.516,230.987,512,256,512s48.73-13.484,62.599-34.629    C327.338,479.735,336.524,481,346,481c57.897,0,105-47.103,105-105c0-76.423,3.641-139.862-12.865-200.97    c10.101-4.704,18.871-11.998,25.017-21.218l38.593-57.889C508.263,86.148,512,73.439,512,61.056C512,27.39,484.61,0,450.944,0z     M73.809,137.171l-38.593-57.89C31.999,74.456,30,67.472,30,61.056C30,43.932,43.932,30,61.056,30h88.889    C167.068,30,181,43.932,181,61.056c0,6.417-1.999,13.4-5.216,18.227l-38.594,57.89C131.419,145.831,121.759,151,111.352,151    h-10.703C89.944,151,79.409,145.572,73.809,137.171z M256,482c-13.247,0-25.938-6.464-34.484-16.915    c14.067-8.798,25.914-20.829,34.484-35.048c8.57,14.219,20.417,26.25,34.484,35.048C281.938,475.536,269.247,482,256,482z     M241.952,340.739C244.088,335.055,249.579,331,256,331s11.912,4.055,14.048,9.739L256,354.787L241.952,340.739z M421,376    c0,41.355-33.645,75-75,75c-39.344,0-71.708-30.451-74.764-69.022l25.37-25.371C299.42,353.793,301,349.978,301,346    c0-24.813-20.187-45-45-45s-45,20.187-45,45c0,3.978,1.58,7.793,4.394,10.606l25.37,25.371C237.708,420.549,205.344,451,166,451    c-41.355,0-75-33.645-75-75c0-3.84-5.593-124.211,12.479-195h7.873c20.462,0,39.452-10.164,50.801-27.188l38.593-57.889    c5.816-8.722,9.409-19.781,10.117-30.859C224.764,61.705,239.892,60,256,60c16.108,0,31.236,1.705,45.137,5.064    c0.708,11.079,4.302,22.137,10.117,30.859l38.592,57.889c2.673,4.009,5.774,7.632,9.213,10.837    C346.864,156.063,332.016,151,316,151c-41.355,0-75,33.645-75,75s33.645,75,75,75c41.355,0,75-33.645,75-75    c0-21.984-9.508-41.788-24.627-55.519c9.961,6.762,21.845,10.519,34.276,10.519h8.023C424.581,238.067,421,297.796,421,376z     M361,226c0,24.813-20.187,45-45,45s-45-20.187-45-45s20.187-45,45-45S361,201.187,361,226z M476.784,79.282l-38.594,57.89    c-5.6,8.4-16.135,13.828-26.839,13.828h-10.703c-10.407,0-20.067-5.169-25.839-13.828c-0.001,0-0.001,0-0.001,0l-38.593-57.89    C332.999,74.456,331,67.472,331,61.056C331,43.932,344.932,30,362.056,30h88.889C468.068,30,482,43.932,482,61.056    C482,67.472,480.001,74.456,476.784,79.282z" data-original="#000000" class="active-path" data-old_color="#000000" fill="#C400FF"/>
	</g>
</g><g>
	<g>
		<circle cx="196" cy="226" r="15" data-original="#000000" class="active-path" data-old_color="#000000" fill="#C400FF"/>
	</g>
</g><g>
	<g>
		<circle cx="316" cy="226" r="15" data-original="#000000" class="active-path" data-old_color="#000000" fill="#C400FF"/>
	</g>
</g></g> </svg>
