<svg height="487pt" viewBox="0 -1 487.28778 487" width="487pt" xmlns="http://www.w3.org/2000/svg"><path d="m5.316406 203.308594 68.6875 160.832031 30.757813-13.023437-68.699219-160.847657c-3.53125-8.273437-13.121094-12.128906-21.421875-8.613281l-.679687.289062c-8.308594 3.519532-12.179688 13.085938-8.644532 21.363282zm0 0" fill="#e0ebfc"/><path d="m74.007812 368.144531c-1.554687 0-3.03125-.914062-3.679687-2.429687l-68.691406-160.832032c-2.125-4.984374-2.183594-10.496093-.15625-15.519531 2.03125-5.039062 5.910156-8.980469 10.921875-11.101562l.675781-.289063c10.316406-4.363281 22.273437.445313 26.664063 10.722656l68.695312 160.851563c.417969.980469.429688 2.082031.03125 3.070313-.398438.984374-1.171875 1.769531-2.148438 2.1875l-30.757812 13.023437c-.507812.214844-1.035156.316406-1.554688.316406zm-65.011718-166.40625 67.121094 157.167969 23.386718-9.902344-67.117187-157.164062c-2.664063-6.230469-9.917969-9.148438-16.183594-6.496094l-.679687.285156c-3.039063 1.289063-5.390626 3.675782-6.621094 6.730469-1.226563 3.035156-1.195313 6.367187.09375 9.378906zm0 0" fill="#3762cc"/><path d="m87.21875 244.320312h-33.597656c-14.84375 0-26.878906 12.855469-26.878906 28.710938v27.59375c0 3.125.382812 6.230469 1.136718 9.246094l13.210938 52.933594c.785156 3.140624 3.449218 5.328124 6.492187 5.328124h39.636719zm0 0" fill="#a4c9ff"/><path d="m211.53125 244.320312h33.597656c14.84375 0 26.878906 12.855469 26.878906 28.710938v27.59375c0 3.125-.382812 6.230469-1.132812 9.246094l-13.214844 52.933594c-.785156 3.140624-3.449218 5.328124-6.492187 5.328124h-39.632813v-123.8125zm0 0" fill="#a4c9ff"/><path d="m87.21875 372.132812h-39.632812c-4.878907 0-9.144532-3.4375-10.375-8.359374l-13.214844-52.933594c-.832032-3.332032-1.253906-6.769532-1.253906-10.214844v-27.597656c0-18.039063 13.855468-32.710938 30.878906-32.710938h33.597656c2.210938 0 4 1.792969 4 4v123.816406c0 2.210938-1.789062 4-4 4zm-33.597656-123.8125c-12.617188 0-22.878906 11.082032-22.878906 24.710938v27.59375c0 2.792969.34375 5.578125 1.019531 8.277344l13.210937 52.933594c.339844 1.351562 1.414063 2.296874 2.613282 2.296874h35.632812v-115.816406h-29.597656zm0 0" fill="#3762cc"/><path d="m251.164062 372.132812h-39.632812c-2.207031 0-4-1.792968-4-4v-123.816406c0-2.207031 1.792969-4 4-4h33.597656c17.027344 0 30.878906 14.675782 30.878906 32.710938v27.597656c0 3.445312-.421874 6.882812-1.253906 10.214844l-13.214844 52.933594c-1.230468 4.921874-5.492187 8.359374-10.375 8.359374zm-35.632812-8h35.632812c1.203126 0 2.277344-.945312 2.613282-2.296874l13.214844-52.933594c.671874-2.699219 1.015624-5.484375 1.015624-8.277344v-27.59375c0-13.628906-10.265624-24.710938-22.878906-24.710938h-29.597656zm0 0" fill="#3762cc"/><path d="m75.628906 128.871094h144.132813l17.25 113.585937c2.050781 13.496094 3.078125 27.109375 3.078125 40.738281v58.167969c0 14.78125-12.726563 26.769531-28.429688 26.769531h-127.929687c-15.699219 0-28.429688-11.988281-28.429688-26.769531v-58.167969c0-13.628906 1.027344-27.242187 3.078125-40.738281zm0 0" fill="#a4c9ff"/><path d="m211.660156 372.132812h-127.929687c-17.878907 0-32.429688-13.804687-32.429688-30.769531v-58.167969c0-13.785156 1.050781-27.691406 3.121094-41.335937l17.25-113.585937c.296875-1.957032 1.980469-3.402344 3.957031-3.402344h144.136719c1.976563 0 3.65625 1.445312 3.953125 3.402344l17.25 113.585937c2.074219 13.648437 3.125 27.558594 3.125 41.335937v58.167969c-.003906 16.964844-14.550781 30.769531-32.433594 30.769531zm-132.59375-239.261718-16.734375 110.1875c-2.011719 13.25-3.03125 26.753906-3.03125 40.136718v58.167969c0 12.554688 10.960938 22.769531 24.429688 22.769531h127.929687c13.46875 0 24.429688-10.214843 24.429688-22.769531v-58.167969c0-13.378906-1.019532-26.882812-3.035156-40.136718l-16.730469-110.1875zm0 0" fill="#3762cc"/><path d="m50.773438 99.390625-14.859376-8.542969c-9.304687-5.351562-12.496093-17.210937-7.117187-26.484375l27.050781-46.664062c7.519532-12.972657 24.164063-17.417969 37.179688-9.929688l31.714844 18.234375-36.785157 63.457032c-7.519531 12.972656-24.164062 17.417968-37.183593 9.929687zm0 0" fill="#4671c6"/><path d="m244.617188 99.390625 14.855468-8.542969c9.308594-5.351562 12.496094-17.210937 7.121094-26.484375l-27.050781-46.664062c-7.519531-12.972657-24.164063-17.417969-37.179688-9.929688l-31.714843 18.234375 36.785156 63.457032c7.519531 12.972656 24.164062 17.417968 37.183594 9.929687zm0 0" fill="#4671c6"/><path d="m64.324219 107.015625c-5.289063 0-10.640625-1.339844-15.542969-4.15625l-14.859375-8.546875c-5.433594-3.125-9.320313-8.175781-10.9375-14.21875-1.617187-6.035156-.78125-12.332031 2.351563-17.738281l27.046874-46.664063c8.609376-14.851562 27.742188-19.960937 42.640626-11.390625l31.710937 18.234375c.921875.53125 1.59375 1.40625 1.871094 2.433594.273437 1.027344.128906 2.121094-.402344 3.042969l-36.785156 63.457031c-5.777344 9.96875-16.296875 15.546875-27.09375 15.546875zm-11.554688-11.089844c11.089844 6.375 25.320313 2.578125 31.726563-8.46875l34.773437-59.984375-28.234375-16.238281c-11.09375-6.378906-25.328125-2.578125-31.730468 8.46875l-27.046876 46.664063c-2.058593 3.554687-2.609374 7.691406-1.546874 11.65625 1.066406 3.976562 3.621093 7.296874 7.199218 9.355468zm0 0" fill="#3762cc"/><path d="m231.066406 107.015625c-10.796875 0-21.316406-5.578125-27.09375-15.546875l-36.785156-63.457031c-.535156-.921875-.675781-2.015625-.402344-3.042969.273438-1.027344.949219-1.902344 1.871094-2.433594l31.714844-18.234375c14.898437-8.570312 34.027344-3.457031 42.636718 11.390625l27.046876 46.664063c3.136718 5.40625 3.972656 11.703125 2.355468 17.738281-1.621094 6.042969-5.503906 11.097656-10.941406 14.222656l-14.855469 8.542969c-4.902343 2.816406-10.257812 4.15625-15.546875 4.15625zm13.550782-7.625h.019531zm-68.492188-71.917969 34.769531 59.984375c6.40625 11.046875 20.640625 14.84375 31.730469 8.46875l14.855469-8.546875c3.582031-2.058594 6.136719-5.378906 7.203125-9.355468 1.0625-3.960938.511718-8.101563-1.546875-11.65625l-27.050781-46.664063c-6.402344-11.046875-20.636719-14.84375-31.726563-8.46875zm0 0" fill="#3762cc"/><path d="m140.007812 201.652344h17.054688c35.183594 0 63.710938-28.519532 63.710938-63.707032v-70.027343c0-31.484375-25.523438-57.003907-57.003907-57.003907h-30.46875c-31.480469 0-57 25.519532-57 57.003907v70.027343c0 35.1875 28.523438 63.707032 63.707031 63.707032zm0 0" fill="#a4c9ff"/><path d="m157.0625 205.652344h-17.054688c-37.335937 0-67.707031-30.371094-67.707031-67.707032v-70.027343c0-33.636719 27.363281-61 61-61h30.46875c33.632813 0 61 27.363281 61 61v70.027343c0 37.335938-30.375 67.707032-67.707031 67.707032zm-23.761719-190.738282c-29.226562 0-53 23.777344-53 53v70.03125c0 32.921876 26.785157 59.707032 59.707031 59.707032h17.054688c32.921875 0 59.707031-26.785156 59.707031-59.707032v-70.027343c0-29.226563-23.777343-53-53-53h-30.46875zm0 0" fill="#3762cc"/><path d="m238.410156 159v-16.75c0-23.097656-18.722656-41.820312-41.820312-41.820312h-97.789063c-23.09375 0-41.820312 18.722656-41.820312 41.820312v16.75c0 23.09375 18.726562 41.816406 41.820312 41.816406h97.789063c23.097656 0 41.820312-18.722656 41.820312-41.816406zm0 0" fill="#a4c9ff"/><path d="m196.589844 204.816406h-97.789063c-25.261719 0-45.820312-20.550781-45.820312-45.816406v-16.75c0-25.265625 20.554687-45.820312 45.820312-45.820312h97.789063c25.265625 0 45.820312 20.550781 45.820312 45.820312v16.75c0 25.261719-20.554687 45.816406-45.820312 45.816406zm-97.789063-100.386718c-20.851562 0-37.820312 16.964843-37.820312 37.820312v16.75c0 20.851562 16.96875 37.816406 37.820312 37.816406h97.789063c20.855468 0 37.820312-16.964844 37.820312-37.816406v-16.75c0-20.855469-16.964844-37.820312-37.820312-37.820312zm0 0" fill="#3762cc"/><path d="m188.203125 99.371094h1.296875c5.164062 0 9.355469-4.1875 9.355469-9.351563v-9.300781c0-5.164062-4.1875-9.351562-9.355469-9.351562h-1.296875c-5.164063 0-9.351563 4.1875-9.351563 9.351562v9.300781c.003907 5.164063 4.1875 9.351563 9.351563 9.351563zm0 0" fill="#3762cc"/><path d="m104.210938 99.371094h1.296874c5.164063 0 9.351563-4.1875 9.351563-9.351563v-9.300781c0-5.164062-4.1875-9.351562-9.351563-9.351562h-1.296874c-5.164063 0-9.351563 4.1875-9.351563 9.351562v9.300781c0 5.164063 4.1875 9.351563 9.351563 9.351563zm0 0" fill="#3762cc"/><path d="m124.5625 205.523438h-21.296875c-9.789063 0-17.726563-7.933594-17.726563-17.722657v-41.121093c0-13.703126 11.109376-24.8125 24.816407-24.8125h39.019531v58.84375c0 13.703124-11.109375 24.8125-24.8125 24.8125zm0 0" fill="#e0ebfc"/><path d="m174.191406 205.523438h21.296875c9.789063 0 17.722657-7.933594 17.722657-17.722657v-41.121093c0-13.703126-11.109376-24.8125-24.8125-24.8125h-39.023438v58.84375c0 13.703124 11.109375 24.8125 24.816406 24.8125zm0 0" fill="#e0ebfc"/><path d="m195.488281 209.523438h-21.300781c-15.886719 0-28.8125-12.925782-28.8125-28.8125v-58.84375c0-2.210938 1.789062-4 4-4h39.019531c15.890625 0 28.816407 12.925781 28.816407 28.8125v41.121093c0 11.976563-9.746094 21.722657-21.722657 21.722657zm-42.113281-83.65625v54.84375c0 11.476562 9.335938 20.8125 20.816406 20.8125h21.296875c7.566407 0 13.722657-6.15625 13.722657-13.722657v-41.121093c0-11.476563-9.335938-20.8125-20.8125-20.8125zm0 0" fill="#3762cc"/><path d="m124.5625 209.523438h-21.296875c-11.980469 0-21.726563-9.746094-21.726563-21.722657v-41.121093c0-15.886719 12.925782-28.8125 28.816407-28.8125h39.019531c2.207031 0 4 1.789062 4 4v58.84375c0 15.886718-12.925781 28.8125-28.8125 28.8125zm-14.210938-83.65625c-11.476562 0-20.8125 9.335937-20.8125 20.8125v41.121093c0 7.566407 6.15625 13.722657 13.722657 13.722657h21.296875c11.476562 0 20.816406-9.335938 20.816406-20.8125v-54.84375zm0 0" fill="#3762cc"/><path d="m166.171875 121.867188h-33.59375c-1.855469 0-3.359375 1.496093-3.359375 3.34375v6.691406c0 4.621094 3.757812 8.367187 8.398438 8.367187h23.519531c4.640625 0 8.402343-3.746093 8.402343-8.367187v-6.691406c-.003906-1.847657-1.507812-3.34375-3.367187-3.34375zm0 0" fill="#f9a7a7"/><path d="m161.136719 144.273438h-23.519531c-6.835938 0-12.402344-5.550782-12.402344-12.367188v-6.691406c0-4.050782 3.304687-7.347656 7.359375-7.347656h33.597656c4.058594 0 7.363281 3.296874 7.363281 7.347656v6.691406c0 6.816406-5.5625 12.367188-12.398437 12.367188zm-27.917969-18.40625v6.039062c0 2.40625 1.972656 4.367188 4.398438 4.367188h23.519531c2.425781 0 4.398437-1.960938 4.398437-4.367188v-6.039062zm32.953125 0h.023437zm0 0" fill="#3762cc"/><path d="m197.65625 372.132812-59.386719-.226562-40.511719.226562c-5.230468 0-9.667968-3.714843-10.574218-8.832031l-7.820313-44.144531c-.890625-5.015625-1.339843-10.144531-1.339843-15.238281v-62.941407c0-2.207031 1.789062-4 4-4 2.207031 0 4 1.792969 4 4v62.941407c0 4.628906.410156 9.285156 1.214843 13.84375l7.820313 44.140625c.230468 1.292968 1.355468 2.230468 2.675781 2.230468l40.519531-.226562 59.417969.226562c1.304687 0 2.429687-.9375 2.660156-2.226562l7.820313-44.144531c.808594-4.558594 1.21875-9.214844 1.21875-13.839844v-62.941406c0-2.207031 1.789062-4 4-4 2.207031 0 4 1.792969 4 4v62.941406c0 5.09375-.453125 10.21875-1.339844 15.234375l-7.824219 44.144531c-.90625 5.117188-5.34375 8.832031-10.550781 8.832031zm0 0" fill="#3762cc"/><path d="m407.710938 256.355469-51.097657 111.363281-20.746093-9.117188 51.101562-111.367187c2.589844-5.640625 9.332031-8.175781 15.058594-5.65625 5.726562 2.519531 8.273437 9.132813 5.683594 14.777344zm0 0" fill="#f9cfcf"/><path d="m356.609375 371.71875c-.539063 0-1.082031-.109375-1.609375-.339844l-20.742188-9.117187c-.980468-.433594-1.75-1.238281-2.128906-2.242188-.382812-1-.34375-2.117187.101563-3.085937l51.101562-111.367188c3.488281-7.605468 12.597657-11.039062 20.304688-7.648437 3.773437 1.65625 6.65625 4.675781 8.105469 8.496093 1.441406 3.789063 1.300781 7.910157-.394532 11.609376l-51.101562 111.363281c-.671875 1.464843-2.117188 2.332031-3.636719 2.332031zm-15.410156-15.144531 13.417969 5.898437 49.457031-107.785156c.796875-1.734375.863281-3.660156.191406-5.429688-.683594-1.800781-2.050781-3.226562-3.847656-4.015624-3.734375-1.640626-8.136719 0-9.8125 3.664062zm0 0" fill="#3762cc"/><path d="m395.9375 307.59375c-.640625-3.96875-1.738281-7.789062-3.234375-11.410156l-21.355469-75.433594h-83.171875l-21.355469 75.433594c-1.492187 3.621094-2.59375 7.441406-3.234374 11.410156l-.3125 2.335938c-.222657 1.9375-.347657 3.90625-.347657 5.902343 0 28.972657 23.9375 52.460938 53.46875 52.460938h26.734375c29.527344 0 53.46875-23.488281 53.46875-52.460938 0-1.996093-.125-3.964843-.347656-5.902343zm0 0" fill="#e0ebfc"/><path d="m343.128906 372.289062h-26.734375c-31.6875 0-57.46875-25.328124-57.46875-56.457031 0-2.050781.125-4.191406.371094-6.355469l.328125-2.417968c.675781-4.210938 1.816406-8.277344 3.40625-12.183594l21.292969-75.214844c.488281-1.722656 2.0625-2.910156 3.847656-2.910156h83.175781c1.789063 0 3.359375 1.1875 3.847656 2.910156l21.292969 75.214844c1.589844 3.90625 2.734375 7.972656 3.394531 12.085938.003907.03125.007813.066406.011719.097656l.316407 2.335937c.257812 2.238281.382812 4.375.382812 6.4375.003906 31.128907-25.777344 56.457031-57.464844 56.457031zm-51.929687-147.539062-20.535157 72.523438c-.039062.148437-.089843.289062-.148437.433593-1.402344 3.398438-2.402344 6.9375-2.980469 10.519531l-.300781 2.238282c-.199219 1.78125-.308594 3.613281-.308594 5.367187 0 26.71875 22.191407 48.457031 49.46875 48.457031h26.734375c27.273438 0 49.46875-21.738281 49.46875-48.457031 0-1.761719-.109375-3.59375-.320312-5.449219l-.300782-2.199218c-.574218-3.566406-1.574218-7.089844-2.972656-10.476563-.054687-.140625-.105468-.285156-.148437-.433593l-20.535157-72.523438zm0 0" fill="#3762cc"/><path d="m401.246094 173.496094-55.25-31.296875 47.257812-25.355469c2.996094-1.609375 6.664063.46875 6.742188 3.820312zm0 0" fill="#e0ebfc"/><path d="m368.210938 142.453125 21.167968-11.359375.558594 23.667969zm0 0" fill="#f9cfcf"/><path d="m401.246094 177.496094c-.679688 0-1.359375-.171875-1.972656-.519532l-55.25-31.296874c-1.269532-.71875-2.042969-2.070313-2.027344-3.527344.015625-1.453125.824218-2.789063 2.109375-3.476563l47.261719-25.355469c2.65625-1.429687 5.800781-1.375 8.414062.144532 2.570312 1.496094 4.144531 4.152344 4.214844 7.101562l1.25 52.835938c.035156 1.441406-.707032 2.789062-1.945313 3.527344-.632812.375-1.34375.566406-2.054687.566406zm-46.964844-35.203125 42.796875 24.246093-1.082031-45.78125c0-.066406-.003906-.242187-.242188-.378906-.136718-.078125-.355468-.144531-.609375-.007812zm0 0" fill="#3762cc"/><path d="m258.277344 173.496094 55.25-31.296875-47.261719-25.355469c-2.996094-1.609375-6.660156.46875-6.742187 3.820312zm0 0" fill="#e0ebfc"/><path d="m270.140625 131.097656 21.167969 11.355469-21.726563 12.308594zm0 0" fill="#f9cfcf"/><path d="m258.273438 177.496094c-.710938 0-1.421876-.191406-2.054688-.566406-1.234375-.742188-1.976562-2.085938-1.941406-3.527344l1.25-52.835938c.070312-2.949218 1.644531-5.605468 4.210937-7.101562 2.613281-1.515625 5.757813-1.574219 8.417969-.144532l47.257812 25.355469c1.285157.6875 2.09375 2.023438 2.113282 3.476563.015625 1.457031-.761719 2.808594-2.03125 3.527344l-55.25 31.296874c-.613282.347657-1.292969.519532-1.972656.519532zm5.804687-57.207032c-.125 0-.230469.042969-.3125.089844-.238281.136719-.242187.3125-.242187.378906l-1.082032 45.78125 42.800782-24.246093-40.867188-21.925781c-.105469-.054688-.207031-.078126-.296875-.078126zm0 0" fill="#3762cc"/><path d="m345.691406 247.640625h-31.859375c-32.097656 0-58.121093-26.023437-58.121093-58.121094 0-32.101562 26.023437-58.125 58.121093-58.125h31.859375c32.097656 0 58.121094 26.023438 58.121094 58.125 0 32.097657-26.023438 58.121094-58.121094 58.121094zm0 0" fill="#e0ebfc"/><path d="m370.683594 216.992188c-5.261719-18.957032-21.949219-32.011719-40.921875-32.011719-18.976563 0-35.664063 13.054687-40.925781 32.011719l-5.023438 18.117187c8.9375 5.421875 19.457031 8.550781 30.714844 8.550781h30.464844c11.257812 0 21.773437-3.128906 30.714843-8.550781zm0 0" fill="#f9cfcf"/><g fill="#3762cc"><path d="m301.996094 195.605469c-3.128906 0-5.664063-2.539063-5.664063-5.664063v-8.667968c0-3.128907 2.539063-5.664063 5.664063-5.664063 3.132812 0 5.667968 2.535156 5.667968 5.664063v8.667968c0 3.125-2.539062 5.664063-5.667968 5.664063zm0 0"/><path d="m358.664062 195.605469c-3.128906 0-5.667968-2.539063-5.667968-5.664063v-8.667968c0-3.128907 2.539062-5.664063 5.667968-5.664063 3.128907 0 5.664063 2.535156 5.664063 5.664063v8.667968c0 3.125-2.535156 5.664063-5.664063 5.664063zm0 0"/><path d="m337.734375 216.988281c-3.214844 0-6.257813-1.042969-8.542969-2.84375-2.285156 1.800781-5.324218 2.84375-8.542968 2.84375-6.917969 0-12.542969-4.800781-12.542969-10.703125 0-2.210937 1.789062-4 4-4 2.207031 0 4 1.789063 4 4 0 1.277344 1.941406 2.703125 4.542969 2.703125 2.109374 0 3.65625-.917969 4.253906-1.832031.953125-1.449219 2.554687-2.308594 4.289062-2.308594 1.738282 0 3.339844.863282 4.289063 2.308594.597656.914062 2.148437 1.832031 4.253906 1.832031 2.601563 0 4.546875-1.425781 4.546875-2.703125 0-2.210937 1.789062-4 4-4 2.207031 0 4 1.789063 4 4 0 5.902344-5.628906 10.703125-12.546875 10.703125zm0 0"/><path d="m345.6875 251.640625h-31.855469c-34.253906 0-62.125-27.867187-62.125-62.125 0-34.253906 27.867188-62.121094 62.125-62.121094h31.855469c34.253906 0 62.125 27.867188 62.125 62.121094 0 34.257813-27.867188 62.125-62.125 62.125zm-31.855469-116.246094c-29.84375 0-54.121093 24.28125-54.121093 54.125s24.277343 54.121094 54.121093 54.121094h31.859375c29.84375 0 54.121094-24.277344 54.121094-54.121094s-24.277344-54.125-54.121094-54.125zm0 0"/><path d="m419.761719 207.488281h-34.179688c-2.207031 0-4-1.789062-4-4 0-2.207031 1.792969-4 4-4h34.179688c2.207031 0 4 1.792969 4 4 0 2.210938-1.792969 4-4 4zm0 0"/><path d="m385.597656 197.988281c-1.394531 0-2.746094-.726562-3.484375-2.027343-1.085937-1.921876-.414062-4.363282 1.507813-5.453126l29.597656-16.765624c1.925781-1.089844 4.363281-.414063 5.453125 1.507812s.414063 4.363281-1.507813 5.453125l-29.597656 16.765625c-.621094.351562-1.300781.519531-1.96875.519531zm0 0"/><path d="m415.1875 233.757812c-.667969 0-1.34375-.167968-1.96875-.519531l-29.597656-16.765625c-1.921875-1.089844-2.597656-3.53125-1.507813-5.453125 1.089844-1.921875 3.527344-2.597656 5.453125-1.507812l29.597656 16.765625c1.921876 1.089844 2.597657 3.53125 1.507813 5.453125-.734375 1.296875-2.089844 2.027343-3.484375 2.027343zm0 0"/><path d="m273.9375 207.488281h-34.175781c-2.207031 0-4-1.789062-4-4 0-2.207031 1.792969-4 4-4h34.175781c2.207031 0 4 1.792969 4 4 0 2.210938-1.792969 4-4 4zm0 0"/><path d="m244.332031 233.757812c-1.394531 0-2.75-.730468-3.484375-2.03125-1.085937-1.921874-.414062-4.363281 1.507813-5.449218l29.597656-16.765625c1.921875-1.089844 4.363281-.414063 5.453125 1.507812 1.085938 1.921875.414062 4.363281-1.507812 5.449219l-29.597657 16.765625c-.621093.355469-1.300781.523437-1.96875.523437zm0 0"/><path d="m273.921875 197.988281c-.667969 0-1.34375-.167969-1.964844-.519531l-29.597656-16.765625c-1.921875-1.085937-2.597656-3.527344-1.507813-5.449219 1.085938-1.921875 3.527344-2.601562 5.449219-1.511718l29.597657 16.769531c1.921874 1.085937 2.597656 3.527343 1.507812 5.449219-.734375 1.300781-2.089844 2.027343-3.484375 2.027343zm0 0"/></g><path d="m334.472656 194.59375 4.710938-4.625c1.019531-1.003906 1.625-2.25 1.847656-3.542969-3.671875-.703125-7.4375-1.078125-11.269531-1.078125-3.835938 0-7.601563.375-11.273438 1.078125.222657 1.296875.828125 2.542969 1.847657 3.542969l4.710937 4.625c2.605469 2.550781 6.824219 2.550781 9.425781 0zm0 0" fill="#f9a7a7"/><path d="m352.421875 372.289062h-13.546875c-.808594 0-1.617188-.074218-2.40625-.21875-3.945312-.726562-6.804688-4.21875-6.804688-8.296874v-53.078126c-.195312-.28125-.328124-.265624-.367187-.265624-.105469.011718-.265625.214843-.265625.449218v52.941406c0 4.644532-3.730469 8.445313-8.3125 8.46875h-13.617188c-6.300781 0-11.71875-4.433593-12.886718-10.542968l-1.765625-9.253906c-14.101563-54.859376-10.808594-71.542969-10.664063-72.226563.464844-2.160156 2.59375-3.535156 4.753906-3.066406 2.144532.457031 3.515626 2.5625 3.078126 4.707031-.066407.367188-2.765626 16.710938 10.609374 68.71875.019532.082031.042969.164062.054688.246094l1.792969 9.375c.449219 2.34375 2.5625 4.046875 5.03125 4.046875h13.542969c.203124 0 .382812-.238281.382812-.472657v-52.941406c0-4.320312 3.300781-8.011718 7.515625-8.410156 2.355469-.222656 4.6875.554688 6.417969 2.132812 1.714844 1.558594 2.699218 3.78125 2.699218 6.09375v53.078126c0 .214843.136719.410156.253907.429687.3125.058594.636719.085937.960937.085937h13.542969c2.46875 0 4.582031-1.699218 5.03125-4.042968l1.792969-9.375c.015625-.085938.035156-.167969.054687-.246094 13.464844-52.347656 10.640625-68.566406 10.609375-68.722656-.410156-2.148438.984375-4.253906 3.128906-4.691406 2.152344-.4375 4.242188.914062 4.703126 3.058593.148437.683594 3.441406 17.363281-10.664063 72.226563l-1.765625 9.253906c-1.171875 6.105469-6.589844 10.539062-12.890625 10.539062zm0 0" fill="#3762cc"/><path d="m425.789062 480.511719h-69c-31.757812 0-57.5-25.742188-57.5-57.5v-69c0-31.753907 25.742188-57.5 57.5-57.5h69c31.753907 0 57.5 25.746093 57.5 57.5v69c0 31.757812-25.746093 57.5-57.5 57.5zm0 0" fill="#f9a7a7"/><path d="m356.613281 460.507812c-20.675781 0-37.5-16.820312-37.5-37.5v-69c0-20.679687 16.824219-37.5 37.5-37.5h69c20.679688 0 37.5 16.820313 37.5 37.5v69c0 20.679688-16.820312 37.5-37.5 37.5zm0 0" fill="#ffea92"/><path d="m425.789062 484.511719h-69c-33.914062 0-61.5-27.585938-61.5-61.5v-69c0-33.910157 27.585938-61.5 61.5-61.5h69c33.910157 0 61.5 27.589843 61.5 61.5v69c0 33.910156-27.589843 61.5-61.5 61.5zm-69-184c-29.5 0-53.5 24-53.5 53.5v69c0 29.5 24 53.5 53.5 53.5h69c29.5 0 53.5-24 53.5-53.5v-69c0-29.5-24-53.5-53.5-53.5zm0 0" fill="#3762cc"/><path d="m439.890625 334.683594c-5.375 3.695312-11.890625 5.859375-18.90625 5.859375-9.835937 0-18.671875-4.25-24.785156-11.007813-2.734375-3.023437-7.394531-3.023437-10.128907 0-6.113281 6.757813-14.949218 11.007813-24.78125 11.007813-7.019531 0-13.535156-2.164063-18.910156-5.859375-4.492187-3.089844-10.601562.023437-10.601562 5.476562v19.089844c0 31.878906 15.234375 61.839844 40.992187 80.621094l9.148438 6.671875c2.351562 1.714843 5.191406 2.640625 8.101562 2.640625h2.238281c2.910157 0 5.746094-.925782 8.101563-2.640625l9.144531-6.671875c25.761719-18.78125 40.992188-48.742188 40.992188-80.621094v-19.09375c-.003906-5.449219-6.109375-8.5625-10.605469-5.472656zm0 0" fill="#e0ebfc"/><path d="m387.441406 416.898438c-3.992187 0-7.835937-1.628907-10.613281-4.519532l-22.824219-23.734375c-3.058594-3.183593-2.960937-8.25.222656-11.308593 3.183594-3.066407 8.25-2.964844 11.3125.21875l21.835938 22.710937 35.714844-42.472656c2.84375-3.386719 7.890625-3.820313 11.273437-.976563 3.378907 2.84375 3.816407 7.890625.972657 11.273438l-36.632813 43.5625c-2.679687 3.191406-6.609375 5.101562-10.773437 5.238281-.164063.003906-.324219.007813-.488282.007813zm0 0" fill="#3762cc"/><path d="m147.648438 370.320312c-2.207032 0-4-1.789062-4-4v-92c0-2.207031 1.792968-4 4-4 2.207031 0 4 1.792969 4 4v92c0 2.210938-1.792969 4-4 4zm0 0" fill="#3762cc"/></svg>